<svg xmlns="http://www.w3.org/2000/svg" width="880" height="600" viewBox="0 0 880 600"><ellipse cx="440" cy="530" rx="400" ry="54" fill="#dbe3ec"/><g transform="rotate(-6 300 280)"><rect x="150" y="70" width="300" height="400" rx="14" fill="#fff"/><rect x="150" y="70" width="300" height="400" rx="14" fill="none" stroke="#cbd5e1" stroke-width="4"/><rect x="150" y="70" width="300" height="72" rx="14" fill="#475569"/><rect x="150" y="120" width="300" height="22" fill="#475569"/><rect x="180" y="96" width="120" height="18" rx="9" fill="#dfe6ee"/><rect x="180" y="176" width="170" height="14" rx="7" fill="#cbd5e1"/><rect x="180" y="206" width="240" height="14" rx="7" fill="#dfe6ee"/><rect x="180" y="236" width="210" height="14" rx="7" fill="#dfe6ee"/><rect x="180" y="266" width="240" height="14" rx="7" fill="#dfe6ee"/><rect x="180" y="316" width="240" height="4" rx="2" fill="#cbd5e1"/><rect x="180" y="344" width="90" height="16" rx="8" fill="#64748b"/><rect x="320" y="338" width="100" height="28" rx="8" fill="#5b9bd5"/><rect x="180" y="400" width="130" height="14" rx="7" fill="#dfe6ee"/></g><path d="M505 210 C 580 150, 660 160, 700 230" fill="none" stroke="#64748b" stroke-width="10" stroke-linecap="round" stroke-dasharray="4 22"/><path d="M682 214 L712 246 L716 202" fill="none" stroke="#64748b" stroke-width="10" stroke-linecap="round" stroke-linejoin="round"/><rect x="560" y="300" width="250" height="190" rx="22" fill="#475569"/><path d="M560 336 a22 22 0 0 1 22-22 h206 a22 22 0 0 1 22 22 v10 H560z" fill="#334155"/><rect x="740" y="370" width="90" height="64" rx="16" fill="#64748b"/><circle cx="772" cy="402" r="12" fill="#dbe3ec"/><circle cx="680" cy="262" r="62" fill="#5b9bd5"/><circle cx="680" cy="262" r="46" fill="none" stroke="#fff" stroke-width="6" opacity="0.6"/><path d="M696 238 c-6-8-30-10-34 4 c-4 14 34 12 34 30 c0 16-30 16-38 4 M680 222 v80" fill="none" stroke="#fff" stroke-width="9" stroke-linecap="round"/><circle cx="118" cy="190" r="10" fill="#5b9bd5" opacity="0.8"/><circle cx="820" cy="140" r="14" fill="#5b9bd5" opacity="0.5"/><circle cx="520" cy="470" r="8" fill="#64748b" opacity="0.6"/></svg>
