<svg width="336" height="366" viewBox="0 0 336 366" fill="none" xmlns="http://www.w3.org/2000/svg">
<path d="M291.671 190.52L291.823 187.24L293.189 189.953C297.117 197.753 305.465 202.305 314.149 201.381C304.862 205.808 299.097 215.333 299.483 225.614L299.604 228.848L298.285 224.828C295.272 215.647 287.098 209.13 277.477 208.239C285.55 206.035 291.282 198.879 291.671 190.52Z" fill="#f0b429"/>
<path d="M305.661 7.53879L305.83 3.92139L307.336 6.91288C311.666 15.513 320.871 20.5318 330.446 19.5137C320.206 24.3941 313.85 34.8965 314.275 46.2318L314.408 49.7982L312.954 45.3652C309.632 35.2431 300.62 28.0578 290.012 27.0747C298.913 24.6451 305.233 16.7552 305.661 7.53879Z" fill="#f0b429"/>
<path d="M17.394 115.754L17.5455 112.493L18.9032 115.19C22.8065 122.941 31.1027 127.465 39.7328 126.547C30.5035 130.946 24.7741 140.412 25.1573 150.629L25.2778 153.843L23.9667 149.848C20.973 140.724 12.85 134.248 3.28906 133.362C11.3115 131.172 17.008 124.061 17.394 115.754Z" fill="#f0b429"/>
<path d="M64.7402 326.668L60.4568 328.193C55.8994 329.815 51.1107 326.432 51.1536 321.595C52.2888 193.409 75.2557 73.7165 104.988 63.144C133.132 52.0982 277.708 88.0443 298.517 88.0443C317.533 88.0443 316.107 131.993 312.335 159.647C311.768 163.799 307.992 166.682 303.82 166.291L272.506 163.355C276.139 176.915 255.391 290.685 242.949 354.249C242.09 358.635 236.874 360.476 233.411 357.651C231.183 355.832 227.97 355.878 225.793 357.758L221.434 361.522C218.553 364.01 214.211 363.74 211.661 360.913L206.245 354.908C203.981 352.398 200.247 351.864 197.371 353.639L192.465 356.666C189.876 358.263 186.553 358.006 184.241 356.03L175.039 348.167C172.888 346.328 169.842 345.966 167.32 347.248L157.388 352.295C154.773 353.624 151.608 353.182 149.457 351.188L139.956 342.377C137.818 340.395 134.674 339.945 132.066 341.249L122.205 346.18C119.489 347.538 116.208 346.99 114.08 344.824L104.69 335.263C102.511 333.044 99.1311 332.529 96.3906 333.997L88.7054 338.114C85.9627 339.583 82.5795 339.066 80.4013 336.844L72.0859 328.363C70.1765 326.415 67.3097 325.754 64.7402 326.668Z" fill="#0b0b10" fill-opacity="0.14"/>
<path d="M59.2577 312.049L54.9744 313.574C50.417 315.196 45.6283 311.813 45.6712 306.976C46.8064 178.789 69.7733 59.0973 99.5061 48.5248C127.65 37.479 272.226 73.4252 293.035 73.4252C312.05 73.4252 310.624 117.374 306.852 145.028C306.286 149.18 302.51 152.063 298.338 151.672L267.024 148.736C270.657 162.296 249.908 276.066 237.466 339.63C236.608 344.016 231.392 345.857 227.929 343.032C225.7 341.213 222.488 341.258 220.311 343.138L215.952 346.903C213.07 349.391 208.729 349.121 206.179 346.293L200.762 340.288C198.498 337.779 194.765 337.245 191.888 339.02L186.982 342.047C184.394 343.644 181.071 343.387 178.759 341.411L169.557 333.547C167.406 331.709 164.36 331.347 161.838 332.629L151.906 337.676C149.291 339.005 146.125 338.563 143.975 336.568L134.473 327.758C132.335 325.775 129.192 325.326 126.583 326.63L116.723 331.561C114.007 332.918 110.725 332.371 108.598 330.204L99.2078 320.643C97.0293 318.425 93.6487 317.91 90.9081 319.378L83.2229 323.495C80.4803 324.964 77.0971 324.447 74.9189 322.225L66.6035 313.744C64.6941 311.796 61.8273 311.135 59.2577 312.049Z" fill="#27a35e"/>
<path d="M115.775 49.127L259.385 73.3803C264.282 74.2072 269.3 73.9694 274.205 73.1918C302.606 68.6888 305.36 81.3198 306.041 86.7335C294.551 74.8181 281.292 81.2453 274.439 86.1042C271.229 88.3804 269.363 91.8659 268.515 95.7087C262.375 123.529 236.054 245.044 228.995 315.172C228.524 319.855 223.128 322.273 219.332 319.489L216.764 317.606C215.164 316.433 213.087 316.127 211.217 316.788L198.047 321.443C196.233 322.083 194.223 321.816 192.64 320.724L181.263 312.873C179.851 311.899 178.09 311.575 176.424 311.984L163.925 315.054C162.18 315.483 160.335 315.107 158.897 314.03L147.532 305.516C145.817 304.231 143.545 303.959 141.574 304.802L129.494 309.974C127.518 310.82 125.24 310.544 123.523 309.25L110.853 299.708C109.326 298.558 107.343 298.204 105.513 298.755L93.0196 302.518C91.109 303.094 89.0374 302.682 87.4923 301.419L76.6563 292.564C74.9292 291.153 72.5617 290.816 70.5094 291.69L62.2474 295.207C58.9195 296.624 55.2226 294.809 54.8904 291.207C52.0035 259.901 62.6037 163.354 76.7809 116.374C90.16 66.5019 100.511 49.127 115.775 49.127Z" fill="#0c2a1b"/>
<path d="M225.179 127.438L113.543 107.604C108.705 106.744 104.143 110.337 103.833 115.251C103.571 119.402 106.476 123.036 110.577 123.686L222.597 141.44C226.772 142.102 230.655 138.986 230.921 134.76C231.146 131.196 228.688 128.061 225.179 127.438Z" fill="#27a35e"/>
<path d="M209.295 187.903L98.0588 168.093C93.2206 167.232 88.6568 170.824 88.3465 175.739C88.0844 179.889 90.9878 183.522 95.0873 184.173L206.708 201.904C210.883 202.567 214.767 199.451 215.034 195.224C215.259 191.661 212.803 188.527 209.295 187.903Z" fill="#27a35e"/>
<path d="M177.85 150.78L106.423 137.723C101.59 136.839 97.0151 140.424 96.7048 145.339C96.4428 149.488 99.3549 153.116 103.457 153.751L175.245 164.857C179.435 165.505 183.322 162.375 183.589 158.136C183.815 154.566 181.362 151.422 177.85 150.78Z" fill="#27a35e"/>
<path d="M161.137 211.608L89.7101 198.551C84.8767 197.668 80.3022 201.252 79.9919 206.167C79.7299 210.316 82.642 213.945 86.7439 214.579L158.532 225.685C162.722 226.334 166.609 223.203 166.876 218.964C167.102 215.394 164.649 212.25 161.137 211.608Z" fill="#27a35e"/>
<path d="M134.09 237.236L87.6425 229.161C82.8628 228.33 78.368 231.883 78.0617 236.735C77.7977 240.916 80.777 244.553 84.9232 245.111L131.675 251.4C135.839 251.96 139.648 248.831 139.913 244.632C140.141 241.024 137.645 237.854 134.09 237.236Z" fill="#27a35e"/>
</svg>
