<?xml version="1.0" encoding="UTF-8"?>
<svg version="1.1" xmlns="http://www.w3.org/2000/svg" width="1024" height="1024">
<path d="M0 0 C337.92 0 675.84 0 1024 0 C1024 337.92 1024 675.84 1024 1024 C686.08 1024 348.16 1024 0 1024 C0 686.08 0 348.16 0 0 Z " fill="#0066CE" transform="translate(0,0)"/>
<path d="M0 0 C51.48 0 102.96 0 156 0 C156 60.06 156 120.12 156 182 C220.68 182 285.36 182 352 182 C352 234.14 352 286.28 352 340 C287.32 340 222.64 340 156 340 C156 400.72 156 461.44 156 524 C104.19 524 52.38 524 -1 524 C-1 463.28 -1 402.56 -1 340 C-65.35 340 -129.7 340 -196 340 C-196 287.86 -196 235.72 -196 182 C-131.32 182 -66.64 182 0 182 C0 121.94 0 61.88 0 0 Z " fill="#FCFDFD" transform="translate(434,222)"/>
</svg>
